<?xml version="1.0" standalone="no"?>
<!DOCTYPE svg PUBLIC "-//W3C//DTD SVG 20010904//EN"
 "http://www.w3.org/TR/2001/REC-SVG-20010904/DTD/svg10.dtd">
<svg version="1.0" xmlns="http://www.w3.org/2000/svg"
 width="48" height="48" viewBox="0 0 200.000000 200.000000"
 preserveAspectRatio="xMidYMid meet">

<g transform="translate(0.000000,200.000000) scale(0.100000,-0.100000)"
fill="transparent">
<!--essa parte aqui faz o fundo branco do instagram-->
<rect width="4800" height="4800"
style="fill:white" centerx="0" cy="0"/>

<path d="M0 1000 l0 -1000 1000 0 1000 0 0 1000 0 1000 -1000 0 -1000 0 0
-1000z m1294 485 c92 -28 153 -84 186 -172 18 -49 20 -78 20 -313 0 -294 -7
-331 -78 -407 -78 -85 -114 -93 -423 -93 -234 0 -263 2 -312 20 -88 33 -144
94 -172 186 -21 71 -21 517 0 588 30 99 83 155 178 187 72 24 524 27 601 4z"/>
<path d="M797 1399 c-187 -19 -213 -83 -198 -485 7 -185 10 -204 30 -232 52
-74 127 -92 377 -92 304 0 368 30 395 185 12 70 7 444 -7 499 -12 49 -83 112
-135 120 -76 11 -370 15 -462 5z m511 -89 c12 -12 22 -32 22 -45 0 -29 -36
-65 -64 -65 -26 0 -66 38 -66 64 0 27 38 66 65 66 12 0 31 -9 43 -20z m-244
-62 c138 -39 232 -199 185 -315 -32 -78 -43 -95 -84 -131 -85 -75 -212 -80
-312 -12 -60 41 -113 136 -113 205 0 77 54 177 117 217 73 45 136 56 207 36z"/>
<path d="M930 1147 c-122 -57 -120 -240 3 -295 38 -16 107 -15 144 3 92 46
113 169 43 257 -34 43 -134 61 -190 35z"/>

</g>

</svg>
