<?xml version="1.0" standalone="no"?>
<!DOCTYPE svg PUBLIC "-//W3C//DTD SVG 20010904//EN"
 "http://www.w3.org/TR/2001/REC-SVG-20010904/DTD/svg10.dtd">
<svg version="1.0" xmlns="http://www.w3.org/2000/svg"
 width="48" height="48" viewBox="0 0 200.000000 200.000000"
 preserveAspectRatio="xMidYMid meet">

<g transform="translate(0.000000,200.000000) scale(0.100000,-0.100000)"
fill="#323238" stroke="none">
<path d="M0 1000 l0 -1000 1000 0 1000 0 0 1000 0 1000 -1000 0 -1000 0 0
-1000z m1283 485 c110 -29 173 -92 202 -202 21 -81 21 -485 0 -566 -29 -110
-92 -173 -202 -202 -81 -21 -485 -21 -566 0 -110 29 -173 92 -202 202 -21 81
-21 485 0 566 28 108 92 173 198 202 76 20 492 21 570 0z"/>
<path d="M1232 1314 c-26 -18 -30 -65 -6 -88 23 -24 70 -20 88 6 22 31 20 45
-9 73 -28 29 -42 31 -73 9z"/>
<path d="M949 1253 c-55 -9 -133 -66 -165 -120 -55 -92 -55 -174 0 -266 35
-59 110 -110 176 -121 169 -27 328 138 292 302 -32 139 -165 229 -303 205z
m132 -109 c94 -48 112 -183 35 -260 -89 -89 -243 -48 -275 74 -38 139 110 254
240 186z"/>
</g>
</svg>
