<?xml version="1.0" standalone="no"?>
<!DOCTYPE svg PUBLIC "-//W3C//DTD SVG 20010904//EN"
 "http://www.w3.org/TR/2001/REC-SVG-20010904/DTD/svg10.dtd">
<svg version="1.0" xmlns="http://www.w3.org/2000/svg"
 width="48" height="48" viewBox="0 0 200.000000 200.000000"
 preserveAspectRatio="xMidYMid meet">

<g transform="translate(0.000000,200.000000) scale(0.100000,-0.100000)"
fill="white" stroke="none">
<path d="M697 1476 c-82 -30 -143 -91 -173 -173 -20 -59 -20 -553 2 -615 20
-61 75 -123 135 -153 48 -25 50 -25 341 -25 329 0 340 2 413 75 73 73 75 84
75 413 0 291 0 293 -25 341 -30 60 -92 115 -153 135 -62 22 -556 22 -615 2z
m610 -95 c26 -12 52 -35 70 -62 l28 -42 3 -261 c4 -292 -1 -320 -63 -375 -56
-49 -86 -53 -366 -49 l-256 3 -42 28 c-76 50 -81 72 -81 374 0 161 4 273 11
290 14 37 57 82 94 99 23 10 96 13 295 13 239 1 269 -1 307 -18z"/>
<path d="M1242 1320 c-30 -13 -46 -54 -31 -83 16 -29 28 -37 60 -37 58 0 79
73 33 109 -30 23 -30 23 -62 11z"/>
<path d="M917 1236 c-134 -48 -203 -204 -147 -334 48 -111 165 -176 279 -153
148 29 238 174 196 317 -13 47 -27 69 -68 109 -74 72 -167 94 -260 61z m174
-99 c43 -29 79 -91 79 -138 0 -56 -39 -119 -90 -146 -54 -29 -104 -29 -155 0
-113 64 -116 210 -6 284 47 32 125 32 172 0z"/>
</g>
</svg>
