<?xml version="1.0" standalone="no"?>
<!DOCTYPE svg PUBLIC "-//W3C//DTD SVG 20010904//EN"
 "http://www.w3.org/TR/2001/REC-SVG-20010904/DTD/svg10.dtd">
<svg version="1.0" xmlns="http://www.w3.org/2000/svg"
 width="48" height="48" viewBox="0 0 200.000000 200.000000"
 preserveAspectRatio="xMidYMid meet">

<g transform="translate(0.000000,200.000000) scale(0.100000,-0.100000)"
fill="white" stroke="none">
<path d="M1153 1390 c-92 -21 -156 -97 -157 -185 -1 -65 -2 -65 -120 -35 -100
25 -199 78 -264 140 -45 43 -53 47 -61 32 -34 -64 -19 -152 37 -214 28 -31 32
-39 17 -35 -65 19 -75 19 -75 1 1 -29 35 -97 61 -120 13 -12 42 -31 64 -42
l40 -21 -42 -1 c-24 0 -43 -3 -43 -7 0 -16 46 -71 75 -92 18 -12 49 -24 69
-28 20 -3 36 -9 36 -12 0 -13 -77 -50 -135 -66 -33 -8 -82 -15 -110 -16 l-50
-1 61 -29 c187 -90 427 -71 605 47 145 96 227 230 250 408 11 79 12 83 62 134
53 54 54 58 15 43 -13 -4 -36 -11 -52 -15 l-30 -7 42 45 c23 25 42 50 42 55 0
6 -17 3 -37 -6 -75 -31 -91 -33 -118 -11 -27 21 -106 49 -134 47 -9 -1 -30 -4
-48 -9z"/>
</g>
</svg>
