<?xml version="1.0" standalone="no"?>
<!DOCTYPE svg PUBLIC "-//W3C//DTD SVG 20010904//EN"
 "http://www.w3.org/TR/2001/REC-SVG-20010904/DTD/svg10.dtd">
<svg version="1.0" xmlns="http://www.w3.org/2000/svg"
 width="48" height="48" viewBox="0 0 200.000000 200.000000"
 preserveAspectRatio="xMidYMid meet">

<g transform="translate(0.000000,200.000000) scale(0.100000,-0.100000)"
fill="#323238" stroke="none">
<path d="M0 1000 l0 -1000 1000 0 1000 0 0 1000 0 1000 -1000 0 -1000 0 0
-1000z m1330 356 l43 -28 58 20 c33 11 59 17 59 14 0 -12 -36 -62 -56 -78 -18
-15 -17 -15 11 -10 17 3 41 8 55 12 21 6 16 -2 -27 -48 -50 -50 -53 -57 -53
-104 0 -218 -179 -440 -415 -514 -108 -34 -263 -32 -372 5 -46 15 -91 34 -100
41 -16 12 -14 13 22 14 57 0 150 26 207 57 l49 27 -45 11 c-53 14 -110 55
-131 95 -18 34 -19 44 -5 35 6 -4 24 -3 41 0 l31 7 -38 18 c-48 22 -88 63
-108 112 -24 56 -21 70 10 58 14 -6 35 -10 47 -10 l21 0 -22 16 c-55 38 -85
164 -53 222 l12 23 53 -49 c91 -83 248 -152 346 -152 35 0 35 1 32 38 -3 26 5
53 25 92 24 44 39 59 83 83 73 38 156 36 220 -7z"/>
</g>
</svg>
